<?xml version="1.0" encoding="UTF-8" standalone="no"?>
<!-- Created with Inkscape (http://www.inkscape.org/) -->

<svg
   width="24"
   height="24"
   viewBox="0 0 6.3499999 6.35"
   version="1.1"
   id="svg1"
   inkscape:version="1.3.2 (091e20e, 2023-11-25, custom)"
   sodipodi:docname="unsupported_trivial_variable.svg"
   xmlns:inkscape="http://www.inkscape.org/namespaces/inkscape"
   xmlns:sodipodi="http://sodipodi.sourceforge.net/DTD/sodipodi-0.dtd"
   xmlns="http://www.w3.org/2000/svg"
   xmlns:svg="http://www.w3.org/2000/svg">
  <sodipodi:namedview
     id="namedview1"
     pagecolor="#ffffff"
     bordercolor="#000000"
     borderopacity="0.25"
     inkscape:showpageshadow="2"
     inkscape:pageopacity="0.0"
     inkscape:pagecheckerboard="true"
     inkscape:deskcolor="#d1d1d1"
     inkscape:document-units="px"
     showgrid="true"
     inkscape:zoom="36.586229"
     inkscape:cx="12.012717"
     inkscape:cy="15.880292"
     inkscape:window-width="2026"
     inkscape:window-height="1493"
     inkscape:window-x="1287"
     inkscape:window-y="240"
     inkscape:window-maximized="0"
     inkscape:current-layer="layer1">
    <inkscape:grid
       id="grid1"
       units="px"
       originx="0"
       originy="0"
       spacingx="0.26458333"
       spacingy="0.26458333"
       empcolor="#0099e5"
       empopacity="0.30196078"
       color="#0099e5"
       opacity="0.14901961"
       empspacing="5"
       dotted="false"
       gridanglex="30"
       gridanglez="30"
       visible="true" />
  </sodipodi:namedview>
  <defs
     id="defs1" />
  <g
     inkscape:label="图层 1"
     inkscape:groupmode="layer"
     id="layer1">
    <path
       style="font-size:5.64444px;font-family:'Noto Sans';-inkscape-font-specification:'Noto Sans';fill:#ffffff;fill-rule:evenodd;stroke:#000000;stroke-width:0.265;stroke-linejoin:bevel"
       d="M 3.304743,4.1476874 H 2.8251861 V 3.910665 q 0,-0.2893878 0.1157551,-0.4960934 Q 3.0566963,3.20511 3.3543523,2.9735997 3.6464962,2.7476016 3.7705195,2.5519203 3.897299,2.353483 3.897299,2.0971681 3.897299,1.8243167 3.7016177,1.647928 3.5086925,1.4715392 3.1752075,1.4715392 q -0.5264102,0 -0.926041,0.3996308 V 1.3089308 Q 2.712187,1.019543 3.2523776,1.019543 q 0.5374345,0 0.854383,0.2838757 0.3197046,0.2811196 0.3197046,0.7386279 0,0.3197046 -0.148828,0.5815317 Q 4.1288092,2.8854053 3.7787878,3.1747931 3.4976682,3.4090594 3.4012056,3.5468632 3.304743,3.6846669 3.304743,3.9327136 Z M 3.0622084,4.7237069 q 0.146072,0 0.2508028,0.1019747 0.1047308,0.1019748 0.1047308,0.2480467 0,0.148828 -0.1047308,0.2508028 -0.1047308,0.099219 -0.2508028,0.099219 -0.1405597,0 -0.2452906,-0.099219 Q 2.712187,5.2253124 2.712187,5.0737283 q 0,-0.148828 0.1019748,-0.2480467 0.1047308,-0.1019747 0.2480466,-0.1019747 z"
       id="text1"
       aria-label="？" />
  </g>
</svg>
