<?xml version="1.0" encoding="UTF-8" standalone="no"?>
<!-- Created with Inkscape (http://www.inkscape.org/) -->

<svg
   width="24"
   height="24"
   viewBox="0 0 6.3499999 6.35"
   version="1.1"
   id="svg1"
   inkscape:version="1.3.2 (091e20e, 2023-11-25, custom)"
   sodipodi:docname="trivial_variable_floating_point.svg"
   xmlns:inkscape="http://www.inkscape.org/namespaces/inkscape"
   xmlns:sodipodi="http://sodipodi.sourceforge.net/DTD/sodipodi-0.dtd"
   xmlns="http://www.w3.org/2000/svg"
   xmlns:svg="http://www.w3.org/2000/svg">
  <sodipodi:namedview
     id="namedview1"
     pagecolor="#ffffff"
     bordercolor="#000000"
     borderopacity="0.25"
     inkscape:showpageshadow="2"
     inkscape:pageopacity="0.0"
     inkscape:pagecheckerboard="true"
     inkscape:deskcolor="#d1d1d1"
     inkscape:document-units="px"
     showgrid="true"
     inkscape:zoom="36.586229"
     inkscape:cx="9.1154516"
     inkscape:cy="15.196975"
     inkscape:window-width="2026"
     inkscape:window-height="1493"
     inkscape:window-x="1287"
     inkscape:window-y="240"
     inkscape:window-maximized="0"
     inkscape:current-layer="layer1">
    <inkscape:grid
       id="grid1"
       units="px"
       originx="0"
       originy="0"
       spacingx="0.26458333"
       spacingy="0.26458333"
       empcolor="#0099e5"
       empopacity="0.30196078"
       color="#0099e5"
       opacity="0.14901961"
       empspacing="5"
       dotted="false"
       gridanglex="30"
       gridanglez="30"
       visible="true" />
  </sodipodi:namedview>
  <defs
     id="defs1" />
  <g
     inkscape:label="图层 1"
     inkscape:groupmode="layer"
     id="layer1">
    <path
       style="font-size:5.64444px;font-family:'Noto Sans';-inkscape-font-specification:'Noto Sans';fill:#ffffff;fill-rule:evenodd;stroke:#000000;stroke-width:0.265;stroke-linejoin:bevel"
       d="m 2.5893093,3.3692081 c 0,0.4365034 -0.028566,0.8090364 -0.085698,1.1175992 C 2.4464785,4.79537 2.3548288,5.0324365 2.2286616,5.1980068 2.104875,5.363577 1.9418099,5.4463621 1.7394663,5.4463621 1.4514244,5.4463621 1.2383685,5.2638585 1.1002988,4.8988514 0.96460963,4.5300813 0.89676503,4.0202002 0.89676503,3.3692081 c 0,-0.4365034 0.027376,-0.8090364 0.082128,-1.1175991 C 1.0360249,1.9430462 1.1264844,1.7078612 1.250271,1.546054 1.3740577,1.3804837 1.5371228,1.2976986 1.7394663,1.2976986 c 0.2856615,0 0.4987174,0.1825035 0.6391676,0.5475107 0.1404502,0.3612441 0.2106754,0.8692437 0.2106754,1.5239988 z m -1.1392131,1.978e-4 c 0,0.5143878 0.021566,0.8993039 0.064702,1.1547484 0.044441,0.2554442 0.1195992,0.3831664 0.2254739,0.3831664 0.1045678,0 0.1790722,-0.1259725 0.2235134,-0.3779176 0.045749,-0.2554443 0.068623,-0.6421101 0.068623,-1.1599972 0,-0.5108887 -0.022874,-0.8940551 -0.068623,-1.1494995 C 1.9193442,1.9644621 1.8448398,1.83674 1.740272,1.83674 c -0.1058747,0 -0.1810326,0.1277221 -0.2254739,0.3831664 -0.043135,0.2554444 -0.064702,0.6386108 -0.064702,1.1494995 z M 3.0213741,5.088707 c 0,-0.1405509 0.035072,-0.2393163 0.1052152,-0.2962964 0.070143,-0.056981 0.1539252,-0.085471 0.2513469,-0.085471 0.097422,0 0.183152,0.02849 0.2571921,0.085471 0.074041,0.056981 0.1110609,0.1557458 0.1110609,0.2962964 0,0.1367523 -0.03702,0.2355177 -0.1110609,0.2962965 -0.074041,0.060778 -0.1597708,0.091168 -0.2571921,0.091168 -0.097422,0 -0.1812035,-0.03039 -0.2513469,-0.091168 C 3.0564457,5.3242247 3.0213741,5.2254593 3.0213741,5.088707 Z M 5.1985877,5.3899177 H 4.6817802 V 2.8915401 c 0,-0.1618074 0.002,-0.2916295 0.006,-0.3894664 0.004,-0.097837 0.010012,-0.1994369 0.018028,-0.3047998 -0.0641,0.060207 -0.083548,0.1110073 -0.1168755,0.1523999 -0.030947,0.041393 -0.069035,0.094074 -0.1142646,0.1580443 L 4.2032972,2.8576734 4.0390419,2.2064535 4.7599022,1.3597874 h 0.4386855 z"
       id="text1"
       aria-label="0.1"
       sodipodi:nodetypes="sscscsccscsscscscscssssssssssccsscccccccc" />
  </g>
</svg>
