<?xml version="1.0" encoding="UTF-8" standalone="no"?>
<!-- Created with Inkscape (http://www.inkscape.org/) -->

<svg
   width="24"
   height="24"
   viewBox="0 0 6.3499999 6.35"
   version="1.1"
   id="svg1"
   inkscape:version="1.3.2 (091e20e, 2023-11-25, custom)"
   sodipodi:docname="variablepanel-unsupported.svg"
   xmlns:inkscape="http://www.inkscape.org/namespaces/inkscape"
   xmlns:sodipodi="http://sodipodi.sourceforge.net/DTD/sodipodi-0.dtd"
   xmlns="http://www.w3.org/2000/svg"
   xmlns:svg="http://www.w3.org/2000/svg">
  <sodipodi:namedview
     id="namedview1"
     pagecolor="#ffffff"
     bordercolor="#000000"
     borderopacity="0.25"
     inkscape:showpageshadow="2"
     inkscape:pageopacity="0.0"
     inkscape:pagecheckerboard="true"
     inkscape:deskcolor="#d1d1d1"
     inkscape:document-units="px"
     showgrid="true"
     inkscape:zoom="36.586229"
     inkscape:cx="12.026383"
     inkscape:cy="15.880292"
     inkscape:window-width="2026"
     inkscape:window-height="1493"
     inkscape:window-x="1287"
     inkscape:window-y="240"
     inkscape:window-maximized="0"
     inkscape:current-layer="layer1">
    <inkscape:grid
       id="grid1"
       units="px"
       originx="0"
       originy="0"
       spacingx="0.26458333"
       spacingy="0.26458333"
       empcolor="#0099e5"
       empopacity="0.30196078"
       color="#0099e5"
       opacity="0.14901961"
       empspacing="5"
       dotted="false"
       gridanglex="30"
       gridanglez="30"
       visible="true" />
  </sodipodi:namedview>
  <defs
     id="defs1">
    <rect
       x="3.9999999"
       y="1.9999999"
       width="16.999999"
       height="20.713464"
       id="rect1" />
  </defs>
  <g
     inkscape:label="图层 1"
     inkscape:groupmode="layer"
     id="layer1">
    <path
       d="M 5.62,10.074502 V 9.6425022 q 0,-0.588 0.252,-0.996 0.252,-0.42 0.864,-0.864 0.54,-0.384 0.768,-0.66 0.24,-0.288 0.24,-0.672 0,-0.372 -0.288,-0.576 -0.276,-0.204 -0.78,-0.204 -0.504,0 -0.996,0.156 -0.492,0.156 -1.008,0.42 l -0.636,-1.284 q 0.588,-0.324 1.272,-0.528 0.684,-0.204 1.5,-0.204 1.248,0 1.932,0.6 0.696,0.6 0.696,1.524 0,0.492 -0.156,0.852 -0.156,0.36 -0.468,0.672 -0.312,0.312 -0.78,0.648 -0.36,0.264 -0.552,0.444 -0.18,0.168 -0.252,0.348 -0.06,0.168 -0.06,0.408 v 0.3479998 z m -0.192,2.004 q 0,-0.552 0.3,-0.768 0.3,-0.228 0.732,-0.228 0.42,0 0.72,0.228 0.3,0.216 0.3,0.768 0,0.528 -0.3,0.768 -0.3,0.228 -0.72,0.228 -0.432,0 -0.732,-0.228 -0.3,-0.24 -0.3,-0.768 z"
       id="text1"
       style="font-weight:bold;font-family:'Noto Sans';-inkscape-font-specification:'Noto Sans Bold';white-space:pre;fill:#9a4800;stroke-linejoin:round"
       transform="matrix(0.50168807,0,0,0.50168807,-0.1727298,-1.2676554)"
       aria-label="?" />
  </g>
</svg>
