<?xml version="1.0" encoding="UTF-8" standalone="no"?>
<!-- Created with Inkscape (http://www.inkscape.org/) -->

<svg
   width="24"
   height="24"
   viewBox="0 0 6.3499999 6.35"
   version="1.1"
   id="svg1"
   inkscape:version="1.3.2 (091e20e, 2023-11-25, custom)"
   sodipodi:docname="variablepanel-floating-point.svg"
   xmlns:inkscape="http://www.inkscape.org/namespaces/inkscape"
   xmlns:sodipodi="http://sodipodi.sourceforge.net/DTD/sodipodi-0.dtd"
   xmlns="http://www.w3.org/2000/svg"
   xmlns:svg="http://www.w3.org/2000/svg">
  <sodipodi:namedview
     id="namedview1"
     pagecolor="#ffffff"
     bordercolor="#000000"
     borderopacity="0.25"
     inkscape:showpageshadow="2"
     inkscape:pageopacity="0.0"
     inkscape:pagecheckerboard="true"
     inkscape:deskcolor="#d1d1d1"
     inkscape:document-units="px"
     showgrid="true"
     inkscape:zoom="36.586229"
     inkscape:cx="9.129118"
     inkscape:cy="15.224307"
     inkscape:window-width="2026"
     inkscape:window-height="1493"
     inkscape:window-x="1287"
     inkscape:window-y="240"
     inkscape:window-maximized="0"
     inkscape:current-layer="layer1">
    <inkscape:grid
       id="grid1"
       units="px"
       originx="0.13229167"
       originy="0.13229167"
       spacingx="0.26458333"
       spacingy="0.26458333"
       empcolor="#0099e5"
       empopacity="0.30196078"
       color="#0099e5"
       opacity="0.14901961"
       empspacing="5"
       dotted="false"
       gridanglex="30"
       gridanglez="30"
       visible="true" />
  </sodipodi:namedview>
  <defs
     id="defs1">
    <rect
       x="3.0339284"
       y="1.5"
       width="18.466071"
       height="19.999999"
       id="rect1" />
  </defs>
  <g
     inkscape:label="图层 1"
     inkscape:groupmode="layer"
     id="layer1">
    <path
       style="font-weight:bold;font-family:'Noto Sans';-inkscape-font-specification:'Noto Sans Bold';white-space:pre;fill:#455e36;stroke-linejoin:round"
       d="m 3.7172031,11.578502 q 0,-0.552 0.3,-0.768 0.3,-0.228 0.732,-0.228 0.42,0 0.72,0.228 0.3,0.216 0.3,0.768 0,0.528 -0.3,0.768 -0.3,0.228 -0.72,0.228 -0.432,0 -0.732,-0.228 -0.3,-0.24 -0.3,-0.768 z m 9.3959979,-0.936 h -1.032 v 1.776 h -1.764 v -1.776 H 6.6572013 V 9.3825022 l 3.7559997,-5.532 h 1.668 v 5.388 h 1.032 z m -2.796,-1.4039998 v -1.452 q 0,-0.276 0.012,-0.672 0.012,-0.396 0.024,-0.732 0.024,-0.348 0.036,-0.456 h -0.048 q -0.108,0.24 -0.24,0.468 -0.1199997,0.228 -0.2759997,0.468 l -1.572,2.376 z"
       id="text1"
       transform="matrix(0.50017047,0,0,0.50017047,-1.0340357,-0.80910536)"
       aria-label=".4" />
  </g>
</svg>
